<?xml version="1.0" encoding="iso-8859-1"?>
<!-- Generator: Adobe Illustrator 19.0.0, SVG Export Plug-In . SVG Version: 6.00 Build 0)  -->
<svg version="1.1" id="Capa_1" xmlns="http://www.w3.org/2000/svg" xmlns:xlink="http://www.w3.org/1999/xlink" x="0px" y="0px"
	 viewBox="0 0 512 512" style="enable-background:new 0 0 512 512;" xml:space="preserve">
<circle style="fill:#FCCB5B;" cx="256" cy="256" r="256"/>
<g>
	<path style="fill:#F9DDAA;" d="M104.321,49.772h39.763c3.678,0,7.011,1.494,9.415,3.908c2.414,2.414,3.908,5.736,3.908,9.425
		c0,7.356-5.966,13.322-13.322,13.322h-31.5c-3.678,0-7.011,1.484-9.415,3.897c-2.414,2.414-3.908,5.736-3.908,9.425
		c0,7.356,5.966,13.322,13.322,13.322h73.306c3.678,0,7.011,1.494,9.415,3.908c2.414,2.403,3.908,5.736,3.908,9.415
		c0,7.356-5.966,13.322-13.322,13.322H86.473c-3.678,0-7.011,1.494-9.425,3.908c-2.403,2.403-3.897,5.736-3.897,9.415
		c0,7.356,5.966,13.322,13.322,13.322h39.16c3.678,0,7.011,1.494,9.415,3.908c2.414,2.403,3.908,5.736,3.908,9.415
		c0,7.356-5.966,13.322-13.322,13.322l-115.057,0.001C26.625,128.971,60.021,82.408,104.321,49.772z"/>
	<path style="fill:#F9DDAA;" d="M379.038,307.018h73.16c7.356,0,13.322,5.966,13.322,13.322c0,3.679-1.494,7.012-3.897,9.415
		c-2.414,2.414-5.747,3.908-9.425,3.908H423.78c-7.356,0-13.322,5.966-13.322,13.322c0,3.679,1.494,7.012,3.908,9.415
		c2.404,2.414,5.737,3.908,9.415,3.908h11.306h54.756c11.083-24.809,18.329-51.705,20.995-79.936l-131.802,0.001
		c-7.356,0-13.322,5.966-13.322,13.322c0,3.679,1.494,7.012,3.908,9.415C372.027,305.524,375.36,307.018,379.038,307.018z"/>
</g>
<rect id="SVGCleanerId_0" x="181.97" y="387.35" style="fill:#BFA993;" width="148.06" height="96.9"/>
<g>
	<rect id="SVGCleanerId_0_1_" x="181.97" y="387.35" style="fill:#BFA993;" width="148.06" height="96.9"/>
</g>
<g>
	<rect x="181.97" y="387.35" style="fill:#AA927D;" width="31.03" height="96.9"/>
	<path style="fill:#AA927D;" d="M290.06,426.911h-68.12c-4.917,0-8.94,4.023-8.94,8.94v48.394h86v-48.394
		C299,430.934,294.977,426.911,290.06,426.911z"/>
</g>
<g>
	<path style="fill:#99806D;" d="M249.94,426.911h-28c-4.917,0-8.94,4.023-8.94,8.94v48.394h28v-48.394
		C241,430.934,245.023,426.911,249.94,426.911z"/>
	<rect x="174.47" y="402.91" style="fill:#99806D;" width="15" height="60"/>
	<rect x="322.53" y="402.91" style="fill:#99806D;" width="15" height="60"/>
</g>
<polygon style="fill:#AA927D;" points="274.618,39.185 256.136,39.185 255.864,39.185 237.382,39.185 187.923,347.744 
	255.864,347.744 256.136,347.744 324.077,347.744 "/>
<polygon style="fill:#99806D;" points="256.137,39.185 255.864,39.185 237.382,39.185 187.923,347.744 220.747,347.744 
	258.283,39.185 "/>
<g>
	<path style="fill:#888889;" d="M256,0c-4.446,0-8.05,3.604-8.05,8.05c0,1.42,0,3.071,0,4.852c0,4.507,0,9.911,0,15.027h16.1
		c0-5.116,0-10.519,0-15.027c0-1.781,0-3.432,0-4.852C264.05,3.604,260.446,0,256,0z"/>
	<path style="fill:#888889;" d="M352.953,486.244v-14c0-6.6-5.4-12-12-12H171.046c-6.6,0-12,5.4-12,12v14H352.953z"/>
</g>
<path style="fill:#79797A;" d="M226.713,475.014c0-8.124,6.647-14.77,14.77-14.77h-70.437c-6.6,0-12,5.4-12,12v14h67.667
	L226.713,475.014L226.713,475.014z"/>
<path style="fill:#B9B9BA;" d="M366.415,406.151h-220.83c-7.456,0-13.5-6.044-13.5-13.5s6.044-13.5,13.5-13.5h220.83
	c7.456,0,13.5,6.044,13.5,13.5C379.915,400.108,373.871,406.151,366.415,406.151z"/>
<path style="fill:#9D9D9E;" d="M206.113,392.651c0-7.456,6.044-13.5,13.5-13.5h-74.027c-7.456,0-13.5,6.044-13.5,13.5
	s6.044,13.5,13.5,13.5h74.027C212.157,406.151,206.113,400.108,206.113,392.651z"/>
<path style="fill:#B9B9BA;" d="M357.165,309.683c0-7.456-6.044-13.5-13.5-13.5h-175.33c-7.456,0-13.5,6.044-13.5,13.5
	s6.044,13.5,13.5,13.5h175.33C351.121,323.183,357.165,317.139,357.165,309.683z"/>
<path style="fill:#9D9D9E;" d="M227.02,296.183h-58.685c-7.456,0-13.5,6.044-13.5,13.5s6.044,13.5,13.5,13.5h55.4L227.02,296.183z"
	/>
<path style="fill:#B9B9BA;" d="M333.078,234.038c0-7.456-6.044-13.5-13.5-13.5H192.915c-7.456,0-13.5,6.044-13.5,13.5
	s6.044,13.5,13.5,13.5h126.664C327.034,247.538,333.078,241.494,333.078,234.038z"/>
<path style="fill:#9D9D9E;" d="M236.222,220.538h-43.307c-7.456,0-13.5,6.044-13.5,13.5s6.044,13.5,13.5,13.5h40.022
	L236.222,220.538z"/>
<path style="fill:#B9B9BA;" d="M316.578,175.233c0-7.456-6.044-13.5-13.5-13.5h-93.664c-7.456,0-13.5,6.044-13.5,13.5
	s6.044,13.5,13.5,13.5h93.664C310.534,188.733,316.578,182.689,316.578,175.233z"/>
<path style="fill:#9D9D9E;" d="M243.375,161.733h-33.96c-7.456,0-13.5,6.044-13.5,13.5s6.044,13.5,13.5,13.5h30.676L243.375,161.733
	z"/>
<path style="fill:#B9B9BA;" d="M289.182,113.757h-8.875h-48.122h-8.875c-7.456,0-13.5,4.586-13.5,10.243s6.044,10.243,13.5,10.243
	h8.875h48.122h8.875c7.456,0,13.5-4.586,13.5-10.243S296.638,113.757,289.182,113.757z"/>
<path style="fill:#9D9D9E;" d="M232.186,113.757h-8.875c-7.456,0-13.5,4.586-13.5,10.243s6.044,10.243,13.5,10.243h8.875h14.533
	l2.492-20.487h-17.025V113.757z"/>
<path style="fill:#B9B9BA;" d="M281.197,70.165h-6.723H238.02h-6.723c-5.648,0-10.227,3.474-10.227,7.76s4.579,7.76,10.227,7.76
	h6.723h36.454h6.723c5.648,0,10.227-3.474,10.227-7.76C291.424,73.639,286.845,70.165,281.197,70.165z"/>
<path style="fill:#9D9D9E;" d="M238.02,70.165h-6.723c-5.648,0-10.227,3.474-10.227,7.76s4.579,7.76,10.227,7.76h6.723h14.606
	l1.888-15.52C254.514,70.165,238.02,70.165,238.02,70.165z"/>
<path style="fill:#B9B9BA;" d="M269.95,31.426h-6.723h-14.454h-6.723c-5.648,0-10.227,3.474-10.227,7.76s4.579,7.76,10.227,7.76
	h6.723h14.454h6.723c5.648,0,10.227-3.474,10.227-7.76S275.598,31.426,269.95,31.426z"/>
<path style="fill:#9D9D9E;" d="M248.773,31.426h-6.723c-5.648,0-10.227,3.474-10.227,7.76s4.579,7.76,10.227,7.76h6.723h8.566
	l0.944-7.76l1.011-7.76C259.294,31.426,248.773,31.426,248.773,31.426z"/>
<path style="fill:#888889;" d="M129.606,392.652h252.788c1.087,0,1.848-1.055,1.529-2.094c-9.423-30.666-38.01-53.15-71.659-53.15
	H199.737c-33.649,0-62.236,22.484-71.659,53.15C127.758,391.597,128.519,392.652,129.606,392.652z"/>
<path style="fill:#79797A;" d="M129.606,392.651h0.003h76.526c9.675-30.258,36.536-55.244,69.852-55.244h-76.25
	c-31.546,0-58.643,19.762-69.671,47.5c-0.735,1.849-1.399,3.734-1.988,5.65c-0.04,0.13-0.063,0.26-0.07,0.388
	c-0.031,0.513,0.186,0.997,0.553,1.317C128.837,392.503,129.199,392.651,129.606,392.651z"/>
<path style="fill:#888889;" d="M153.08,309.683h205.84c1.092,0,1.853-1.065,1.525-2.107c-7.826-24.865-31.092-43.051-58.454-43.051
	h-91.983c-27.361,0-50.628,18.187-58.454,43.051C151.227,308.618,151.988,309.683,153.08,309.683z"/>
<path style="fill:#79797A;" d="M223.18,307.576c7.826-24.865,31.092-43.052,58.454-43.052h-71.625
	c-27.361,0-50.628,18.187-58.454,43.052c-0.328,1.042,0.433,2.107,1.525,2.107h71.625
	C223.613,309.683,222.852,308.618,223.18,307.576z"/>
<path style="fill:#888889;" d="M177.629,234.038H334.37c1.096,0,1.867-1.075,1.526-2.117c-6.152-18.802-23.856-32.498-44.644-32.498
	h-70.506c-20.788,0-38.492,13.696-44.644,32.498C175.762,232.964,176.533,234.038,177.629,234.038z"/>
<path style="fill:#79797A;" d="M232.853,231.922c6.151-18.801,23.856-32.498,44.644-32.498h-56.75
	c-20.788,0-38.493,13.696-44.644,32.498c-0.341,1.041,0.43,2.117,1.526,2.117h56.75
	C233.284,234.038,232.513,232.963,232.853,231.922z"/>
<path style="fill:#888889;" d="M194.122,175.233h123.756c1.101,0,1.879-1.086,1.524-2.128
	c-5.024-14.726-18.991-25.405-35.362-25.405h-56.08c-16.371,0-30.337,10.679-35.362,25.405
	C192.243,174.148,193.021,175.233,194.122,175.233z"/>
<path style="fill:#79797A;" d="M239.723,173.106c5.024-14.726,18.991-25.405,35.362-25.405H227.96
	c-16.371,0-30.337,10.679-35.362,25.405c-0.355,1.042,0.423,2.127,1.524,2.127h47.125
	C240.146,175.233,239.368,174.148,239.723,173.106z"/>
<path style="fill:#888889;" d="M208.422,124.455h95.156c1.107,0,1.895-1.1,1.519-2.141c-4.043-11.191-14.767-19.254-27.307-19.254
	h-43.579c-12.54,0-23.264,8.063-27.307,19.254C206.527,123.355,207.315,124.455,208.422,124.455z"/>
<path style="fill:#79797A;" d="M245.834,122.314c4.043-11.191,14.767-19.254,27.307-19.254H234.21
	c-12.54,0-23.264,8.063-27.307,19.254c-0.376,1.04,0.412,2.141,1.518,2.141h38.931C246.246,124.455,245.458,123.354,245.834,122.314
	z"/>
<path style="fill:#888889;" d="M220.531,77.925h70.938c1.114,0,1.914-1.119,1.508-2.157c-3.205-8.195-11.182-14.044-20.477-14.044
	h-33c-9.295,0-17.272,5.85-20.477,14.044C218.617,76.806,219.417,77.925,220.531,77.925z"/>
<path style="fill:#79797A;" d="M252.148,75.768c3.198-8.176,11.147-14.016,20.415-14.042c-0.022,0-0.042-0.002-0.063-0.002h-33
	c-9.295,0-17.272,5.85-20.477,14.044c-0.406,1.038,0.394,2.156,1.509,2.156h33.125C252.542,77.925,251.742,76.806,252.148,75.768z"
	/>
<path style="fill:#888889;" d="M231.578,39.185h48.844c1.17,0,1.945-1.213,1.462-2.28c-2.45-5.409-7.895-9.2-14.193-9.2h-23.383
	c-6.298,0-11.743,3.791-14.193,9.2C229.633,37.972,230.408,39.185,231.578,39.185z"/>
<path style="fill:#79797A;" d="M256.146,36.905c2.276-5.026,7.14-8.65,12.869-9.139c-0.436-0.037-0.877-0.061-1.323-0.061h-23.383
	c-6.298,0-11.743,3.791-14.193,9.2c-0.483,1.067,0.292,2.28,1.463,2.28h26.03C256.438,39.185,255.663,37.972,256.146,36.905z"/>
<path style="fill:#E0E2E2;" d="M139.959,484.244C174.793,501.989,214.227,512,256,512s81.207-10.011,116.041-27.756H139.959z"/>
<path style="fill:#CBD0D1;" d="M225.272,484.244h-85.313c25.644,13.063,53.782,21.928,83.51,25.7
	C207.615,507.789,209.178,484.244,225.272,484.244z"/>
<g>
</g>
<g>
</g>
<g>
</g>
<g>
</g>
<g>
</g>
<g>
</g>
<g>
</g>
<g>
</g>
<g>
</g>
<g>
</g>
<g>
</g>
<g>
</g>
<g>
</g>
<g>
</g>
<g>
</g>
</svg>
